<svg version="1.0" xmlns="http://www.w3.org/2000/svg" width="682.667" height="682.667" viewBox="0 0 512 512"><path d="M236.1 1.5c-32.3 7.3-56.4 26-70.6 55-10.5 21.2-9.9 14.3-10.3 120.5-.3 68.2 0 94.7.8 101 4.7 33.4 25.1 61.6 55.6 76.8 28.5 14.3 63.2 13.8 91.7-1.1 25.5-13.5 44.8-38.7 51.4-67.2 1.7-7.5 1.8-14.4 1.8-104.5V85.5l-2.3-9C351.1 64 342.7 47.4 334.3 37c-12.6-15.7-30.8-27.8-50.8-33.6-7.7-2.3-11.3-2.7-25-3-11.4-.3-17.8.1-22.4 1.1z" fill='rgb(82, 74, 55)'/><path d="M102.5 247.4c-3.7 1.7-8 6.2-9.4 9.9-1.6 4.1-1.3 19.1.4 31C104.2 360 158.6 415.4 229.8 427l7.2 1.2V475h-32.2c-33.3 0-39 .6-44 4.1-9.7 6.9-8.7 24.8 1.7 30.6l4 2.3h179l4-2.3c10.4-5.8 11.4-23.7 1.7-30.6-5-3.5-10.7-4.1-43.9-4.1H275v-46.8l7.3-1.2c57.8-9.4 105.1-47.8 127.1-103.2 8.1-20.4 13.3-56.6 9.5-66.5-3.5-9.3-14.9-13.8-24.6-9.8-8.3 3.5-10.3 7.4-11.4 22.5-1.4 20.5-5.3 35.1-14.2 52.4C339.9 378.9 274 405 213.4 384c-29.4-10.2-55.7-33.3-70.1-61.6-8.9-17.3-12.8-31.9-14.2-52.4-.8-11.7-2.1-15.9-5.8-19.2-4.9-4.5-14.8-6.1-20.8-3.4z" fill='rgb(82, 74, 55)'/></svg>